<?xml version="1.0" standalone="no"?>
<!DOCTYPE svg PUBLIC "-//W3C//DTD SVG 20010904//EN"
 "http://www.w3.org/TR/2001/REC-SVG-20010904/DTD/svg10.dtd">
<svg version="1.0" xmlns="http://www.w3.org/2000/svg"
 width="256.000000pt" height="256.000000pt" viewBox="0 0 256.000000 256.000000"
 preserveAspectRatio="xMidYMid meet">
<metadata>
Created by potrace 1.15, written by Peter Selinger 2001-2017
</metadata>
<g transform="translate(0.000000,256.000000) scale(0.100000,-0.100000)"
fill="#000000" stroke="none">
<path d="M785 2033 c-33 -8 -108 -63 -138 -101 -32 -42 -61 -133 -52 -162 4
-14 16 -20 38 -21 28 -2 29 -2 7 -6 -51 -10 -56 -30 -29 -119 9 -29 49 -86 49
-70 0 3 12 -2 27 -11 26 -17 27 -17 20 0 -4 10 -7 22 -7 25 0 4 -5 0 -11 -8
-8 -12 -9 -10 -7 10 l3 25 595 1 c327 1 589 0 583 -3 -18 -7 -16 -43 2 -43 8
0 15 5 15 10 0 6 6 10 13 10 14 -1 -36 -44 -78 -68 -23 -13 -58 -16 -152 -17
l-123 0 0 -444 0 -444 -24 -31 c-36 -47 -147 -98 -226 -104 -103 -7 -168 17
-230 84 l-50 56 0 441 0 442 -124 0 c-117 1 -127 2 -178 30 -49 26 -51 27 -33
6 40 -46 113 -74 210 -80 l90 -6 5 -415 c5 -453 4 -441 66 -504 114 -113 344
-113 458 0 62 63 61 51 66 504 l5 415 90 6 c75 4 100 11 144 35 65 35 116 99
137 173 19 65 12 83 -37 92 l-34 6 37 2 c47 1 55 23 34 94 -19 66 -56 115
-120 158 l-49 34 -486 2 c-267 0 -495 -1 -506 -4z m1007 -56 c65 -33 104 -85
124 -164 l6 -23 -640 0 c-356 0 -643 4 -646 9 -12 20 27 101 66 136 73 67 54
65 578 62 439 -2 478 -3 512 -20z"/>
<path d="M200 1987 c-76 -30 -86 -36 -118 -68 -41 -40 -55 -68 -73 -137 -12
-47 -11 -62 4 -119 25 -95 102 -176 180 -189 49 -9 43 -22 -20 -45 -60 -23
-118 -77 -144 -133 -17 -37 -19 -71 -19 -366 0 -293 2 -329 19 -365 36 -81
123 -140 223 -152 85 -10 164 36 226 130 l27 42 0 345 c0 389 3 371 -79 451
-24 24 -59 48 -77 54 -45 15 -47 31 -6 39 45 8 110 52 142 96 28 37 55 117 55
160 0 51 -40 144 -78 183 -67 69 -188 103 -262 74z m174 -58 c26 -13 57 -37
69 -54 12 -16 24 -32 28 -35 4 -3 13 -27 20 -53 37 -148 -70 -287 -220 -287
-121 1 -214 83 -228 200 -22 186 163 314 331 229z m-36 -525 c18 -3 54 -26 80
-49 l47 -43 0 -382 0 -381 -41 -39 c-26 -24 -60 -43 -96 -54 -51 -15 -61 -15
-124 1 -55 13 -78 24 -112 57 l-42 40 0 372 0 371 29 40 c24 33 41 44 88 58
32 9 63 19 68 21 11 3 49 -1 103 -12z"/>
<path d="M2230 1994 c-118 -43 -171 -91 -201 -182 -24 -72 -22 -126 9 -196 32
-71 125 -146 182 -146 31 0 19 -22 -19 -35 -44 -14 -120 -90 -141 -140 -15
-35 -17 -80 -16 -375 l1 -335 34 -51 c18 -28 56 -66 84 -85 44 -30 57 -34 116
-34 48 0 79 6 114 23 27 13 47 26 44 29 -3 2 -14 0 -24 -5 -10 -6 -59 -13
-109 -16 -82 -6 -95 -4 -135 17 -84 45 -84 44 -87 439 -3 304 -1 352 13 382
25 53 82 104 137 122 43 14 56 15 92 4 72 -23 124 -58 151 -104 l25 -43 1
-369 1 -369 19 40 c18 37 19 62 16 380 l-2 341 -31 42 c-40 53 -74 80 -132
102 -59 22 -63 36 -15 45 80 15 155 93 180 188 15 57 16 72 4 119 -8 29 -19
65 -27 79 -20 39 -75 88 -124 110 -46 21 -133 33 -160 23z m116 -45 c28 -7 59
-26 87 -53 109 -104 97 -272 -26 -361 -80 -57 -219 -44 -284 28 -47 52 -61 78
-68 129 -11 74 11 139 64 195 63 66 134 85 227 62z"/>
</g>
</svg>
